<svg width="0" height="0" class="hidden">
  <symbol xmlns="http://www.w3.org/2000/svg" viewBox="0 0 24 24" id="positive">
    <path d="M0 0h24v24H0V0z" fill="none"></path>
    <circle cx="15.5" cy="9.5" r="1.5"></circle>
    <circle cx="8.5" cy="9.5" r="1.5"></circle>
    <path d="M12 16c-1.48 0-2.75-.81-3.45-2H6.88a5.495 5.495 0 0 0 10.24 0h-1.67c-.7 1.19-1.97 2-3.45 2zm-.01-14C6.47 2 2 6.48 2 12s4.47 10 9.99 10C17.52 22 22 17.52 22 12S17.52 2 11.99 2zM12 20c-4.42 0-8-3.58-8-8s3.58-8 8-8 8 3.58 8 8-3.58 8-8 8z"></path>
  </symbol>
  <symbol xmlns="http://www.w3.org/2000/svg" viewBox="0 0 24 24" id="neutral">
    <path d="M0 0h24v24H0V0z" fill="none"></path>
    <circle cx="15.5" cy="9.5" r="1.5"></circle>
    <circle cx="8.5" cy="9.5" r="1.5"></circle>
    <path d="M12 14c-2.33 0-4.32 1.45-5.12 3.5h1.67c.69-1.19 1.97-2 3.45-2s2.75.81 3.45 2h1.67c-.8-2.05-2.79-3.5-5.12-3.5zm-.01-12C6.47 2 2 6.48 2 12s4.47 10 9.99 10C17.52 22 22 17.52 22 12S17.52 2 11.99 2zM12 20c-4.42 0-8-3.58-8-8s3.58-8 8-8 8 3.58 8 8-3.58 8-8 8z"></path>
  </symbol>
  <symbol xmlns="http://www.w3.org/2000/svg" viewBox="0 0 24 24" id="negative">
    <path d="M0 0h24v24H0V0z" fill="none"></path>
    <path d="M12 13.5c-2.33 0-4.31 1.46-5.11 3.5h10.22c-.8-2.04-2.78-3.5-5.11-3.5zM7.82 12l1.06-1.06L9.94 12 11 10.94 9.94 9.88 11 8.82 9.94 7.76 8.88 8.82 7.82 7.76 6.76 8.82l1.06 1.06-1.06 1.06zm4.17-10C6.47 2 2 6.47 2 12s4.47 10 9.99 10S22 17.53 22 12 17.52 2 11.99 2zM12 20c-4.42 0-8-3.58-8-8s3.58-8 8-8 8 3.58 8 8-3.58 8-8 8zm4.18-12.24l-1.06 1.06-1.06-1.06L13 8.82l1.06 1.06L13 10.94 14.06 12l1.06-1.06L16.18 12l1.06-1.06-1.06-1.06 1.06-1.06z"></path>
  </symbol>
  <symbol xmlns="http://www.w3.org/2000/svg" viewBox="0 0 24 24" id="flag">
    <path d="M0 0h24v24H0V0z" fill="none"></path>
    <path d="M12.36 6l.4 2H18v6h-3.36l-.4-2H7V6h5.36M14 4H5v17h2v-7h5.6l.4 2h7V6h-5.6L14 4z"></path>
  </symbol>
  <symbol version="1" xmlns="http://www.w3.org/2000/svg" viewBox="0 0 1280 774" id="bomb">
    <path d="M764.5 1.1C718 7.3 679.3 26.9 658.3 54.8c-3.2 4.2-7.1 10.2-8.7 13.3l-3 5.7-9.5-7.5c-23.8-18.5-52.1-37.4-63.4-42.2l-4.7-2-36.1 41.4-36.1 41.4-4.7-2.3c-6.8-3.5-30-12-42.4-15.6-53.1-15.3-110.7-18.1-164.5-7.9C196 96 115.9 147.9 63.4 222.6-10.5 328-20.3 466.8 38 581.5 72 648.4 125.6 702 192.5 736c82.9 42.2 179.5 49.4 268.5 20 39.5-13 75.2-32.4 110-59.9 13.3-10.4 44.8-42.4 55.4-56.1 37.3-48.3 60.5-100.6 70-158 3.6-21.9 4.6-34.3 4.6-59.3 0-43.3-7-82.5-21.7-122.1-5-13.6-18.6-42-25.7-54-4.6-7.8-4.7-7.9-2.8-10 18-19.9 70.2-80.8 70.2-81.8 0-1.9-6.6-12.3-13.9-21.8-7.2-9.5-35.5-38.1-47.3-47.9l-7.7-6.4 2.6-5.1C672.5 38.5 714.4 14.1 768 7.9c12.9-1.4 41.2-.7 52.9 1.5 53.5 9.9 87.6 37.7 98.3 80.3 3.3 12.7 3.2 41.1 0 56.2-7.6 35.2-25.4 72.9-53.2 113.1-43.8 63.2-69 119.1-78.7 174.5-1.4 7.8-1.7 15.7-1.7 35.5 0 22.8.2 26.6 2.2 36 7.7 35.1 24.4 63 49 81.5 54.8 41.1 127.4 28.7 162.2-27.8 3.7-6 8.5-15.8 10.4-21.4.1-.1 9.8 1.1 21.6 2.7 11.8 1.5 24 3.1 27 3.4l5.5.6-7-1.9c-12.6-3.3-17.5-6.3-17.5-10.6 0-6 11.7-15.9 35.7-30.2 18.6-11.1 18.7-11.3 3.7-3.9-15.9 7.8-25.2 11.2-26.8 9.6-.7-.7-.5-2.1.9-4.8 2-3.8 31.9-34.4 53-54.1l12-11.3-11.6 9.9c-35.1 29.8-54.2 41.4-58.9 35.8-2-2.4-1.6-10.8 1-20.2 2.7-9.5 12.8-35.3 21-53.4 3.3-7.3 6-13.6 6-13.9 0-.3-4.3 7.8-9.6 17.9-19.2 37.1-29.4 52.1-35.5 52.1-6.7 0-7.5-25.5-2.4-75.5.8-7.7 1.7-16.9 2-20.5l.4-6.5-1 6c-.5 3.3-2.3 14.5-4 25-7.1 44-13.4 66.2-19.3 68.1-3.1 1-6.8-4-10.5-14.2-3.7-10-9.9-33.7-13.2-50.6-2.9-14.5-3.6-12.5-1 2.8 5.4 31.7 7.5 60.8 5 69.7-1.4 5.3-4.8 6.8-9.5 4.2-7.2-3.9-25.2-25.4-41.6-49.8-3.2-4.8-6.1-8.7-6.4-8.7-.6 0-.7-.1 7.5 12.5 11.1 17.1 28 45.6 32.7 55 4.9 10 5.8 13.7 3.3 14.2-2.2.5-11.8-6.2-23.4-16.4l-10-8.7 13.3 13.9c22.2 23.1 29.2 33.9 25.6 39.3-2.3 3.5-5.9 4.5-16.9 4.5-11.9 0-10.8.2 20.5 4.3 11.3 1.4 20.7 2.8 20.9 3 .3.3-1.9 5.1-4.7 10.8-14.3 28.1-39.1 47.7-68.7 54.2-10.7 2.3-32 2.3-43 0-45.8-9.9-79.5-46.1-90.6-97.5-3-13.8-3.7-44.9-1.5-62 7.1-53.9 31.5-109.9 76.9-176.9 24.2-35.6 36.7-58.9 47.2-87.9 14.7-40.3 15.3-80.4 1.6-109-16.8-35-49-56.8-97.6-66-9.6-1.8-46.7-2.6-57-1.2z"></path>
    <path d="M959.1 281.6c0 1.1.3 1.4.6.6.3-.7.2-1.6-.1-1.9-.3-.4-.6.2-.5 1.3zm2 11c0 1.1.3 1.4.6.6.3-.7.2-1.6-.1-1.9-.3-.4-.6.2-.5 1.3zm1 5c0 1.1.3 1.4.6.6.3-.7.2-1.6-.1-1.9-.3-.4-.6.2-.5 1.3zm1 5c0 1.1.3 1.4.6.6.3-.7.2-1.6-.1-1.9-.3-.4-.6.2-.5 1.3zm154.5.9c-.9 2.6-.7 3.2.5 1.2.6-1 .9-2.1.6-2.3-.2-.3-.7.2-1.1 1.1zm-153.5 4.1c0 1.1.3 1.4.6.6.3-.7.2-1.6-.1-1.9-.3-.4-.6.2-.5 1.3zm1 6c0 1.1.3 1.4.6.6.3-.7.2-1.6-.1-1.9-.3-.4-.6.2-.5 1.3zm1 5c0 1.1.3 1.4.6.6.3-.7.2-1.6-.1-1.9-.3-.4-.6.2-.5 1.3zm142.1 4.9c-1.7 3.7-1.4 4.5.4 1.2.9-1.6 1.4-3.1 1.1-3.3-.2-.2-.9.7-1.5 2.1zm-9.6 20c-.9 2.6-.7 3.2.5 1.2.6-1 .9-2.1.6-2.3-.2-.3-.7.2-1.1 1.1zm-68.4 16c0 1.6.2 2.2.5 1.2.2-.9.2-2.3 0-3-.3-.6-.5.1-.5 1.8zm-52 23.5c0 1.4.2 1.9.5 1.2.2-.6.2-1.8 0-2.5-.3-.6-.5-.1-.5 1.3z"></path>
  </symbol>
</svg>